<?xml version="1.0" standalone="no"?>
<!-- Generator: Adobe Fireworks 10, Export SVG Extension by Aaron Beall (http://fireworks.abeall.com) . Version: 0.6.1  -->
<!DOCTYPE svg PUBLIC "-//W3C//DTD SVG 1.1//EN" "http://www.w3.org/Graphics/SVG/1.1/DTD/svg11.dtd">
<svg id="logos_headers.fw-Website%20Logo" viewBox="0 0 281 88" style="background-color:#ffffff00" version="1.1"
	xmlns="http://www.w3.org/2000/svg" xmlns:xlink="http://www.w3.org/1999/xlink" xml:space="preserve"
	x="0px" y="0px" width="281px" height="88px"
>
	<g id="Layer%201">
		<g>
			<g>
				<path d="M 94.5143 54.5711 C 94.5143 54.5711 96.7788 56.0304 100.5433 56.0304 C 105.1273 56.0304 107.6178 53.805 107.6178 50.6054 C 107.6178 45.1586 99.609 45.0802 99.609 42.6507 C 99.609 41.7886 100.3486 41.2398 102.1396 41.2398 C 104.3582 41.2398 106.1896 42.4548 106.1896 42.4548 L 107.1418 38.686 C 107.1418 38.686 105.2739 37.774 102.1396 37.774 C 96.9298 37.774 94.9298 40.2548 94.9298 43.0426 C 94.9298 48.4894 103.1128 48.6069 103.1128 51.0364 C 103.1128 51.9377 102.2175 52.5647 100.3486 52.5647 C 97.5336 52.5647 95.4958 50.7229 95.4958 50.7229 L 94.5143 54.5711 L 94.5143 54.5711 Z" fill="#ffffff"/>
				<path d="M 112.3405 50.7578 C 112.3405 54.2769 114.5116 56.0345 117.662 56.0345 C 120.9489 56.0345 123.4045 54.1647 123.4045 54.1647 L 122.12 50.7194 C 121.1755 51.3735 119.8154 52.22 118.7954 52.22 C 117.662 52.22 117.0197 51.4505 117.0197 49.6035 L 117.0197 41.6 L 122.2711 41.6 L 122.2711 38.3086 L 117.0197 38.3086 L 117.0197 33.276 L 112.4902 34.1842 L 112.4902 38.107 L 109.6581 39.1222 L 109.6581 41.6 L 112.3405 41.6 L 112.3405 50.7578 L 112.3405 50.7578 Z" fill="#ffffff"/>
				<path d="M 124.8762 51.4938 C 124.8762 54.1273 126.8657 56.0571 129.9327 56.0571 C 133.2532 56.0571 134.8003 54.0894 135.287 53.3326 C 135.9233 54.6429 137.2334 55.795 140.0461 55.8718 L 141.4063 52.2274 C 141.4063 52.2274 139.4795 52.2274 139.4795 50.1769 L 139.4795 43.3679 C 139.4795 39.5627 138.1318 37.774 133.7437 37.774 C 128.892 37.774 125.9447 39.9727 125.9447 39.9727 L 127.0499 43.3292 C 127.0499 43.3292 129.6686 41.2398 132.423 41.2398 C 134.5361 41.2398 134.8003 42.478 134.8003 44.1416 L 134.8003 44.7606 C 128.5604 45.5797 124.8762 47.6919 124.8762 51.4938 L 124.8762 51.4938 ZM 131.2156 52.6137 C 130.3099 52.6137 129.5553 52.2281 129.5553 51.1486 C 129.5553 49.298 131.0647 48.0642 134.8003 47.5244 L 134.8003 50.339 C 133.7814 51.5727 132.574 52.6137 131.2156 52.6137 L 131.2156 52.6137 Z" fill="#ffffff"/>
				<path d="M 144.8097 50.7578 C 144.8097 54.2769 146.9808 56.0345 150.1311 56.0345 C 153.418 56.0345 155.8737 54.1647 155.8737 54.1647 L 154.5892 50.7194 C 153.6447 51.3735 152.2845 52.22 151.2645 52.22 C 150.1311 52.22 149.4889 51.4505 149.4889 49.6035 L 149.4889 41.6 L 154.7404 41.6 L 154.7404 38.3086 L 149.4889 38.3086 L 149.4889 33.276 L 144.9595 34.1842 L 144.9595 38.107 L 142.1273 39.1222 L 142.1273 41.6 L 144.8097 41.6 L 144.8097 50.7578 L 144.8097 50.7578 Z" fill="#ffffff"/>
				<path d="M 157.5195 47.2376 C 157.5195 52.3279 161.0935 56.0304 166.7552 56.0304 C 171.1 56.0304 173.0269 53.9365 173.0269 53.9365 L 171.5912 50.7495 C 171.5912 50.7495 169.74 52.5647 167.0952 52.5647 C 164.2618 52.5647 162.3728 50.3549 162.3728 46.9614 C 162.3728 43.3311 164.5262 41.2398 167.2465 41.2398 C 169.5889 41.2398 171.3645 42.8576 171.3645 42.8576 L 173.0269 39.4347 C 173.0269 39.4347 170.76 37.774 166.9064 37.774 C 161.2064 37.774 157.5195 42.1473 157.5195 47.2376 L 157.5195 47.2376 Z" fill="#ffffff"/>
				<path d="M 174.9303 46.9603 C 174.9303 51.6757 177.9775 56.0304 184.1578 56.0304 C 190.9419 56.0304 193.5378 50.7867 193.5378 46.5352 C 193.5378 42.0517 190.4905 37.774 184.3101 37.774 C 177.6013 37.774 174.9303 42.5541 174.9303 46.9603 L 174.9303 46.9603 ZM 179.7834 46.6125 C 179.7834 43.4818 181.6853 41.2398 184.2339 41.2398 C 187.3149 41.2398 188.6847 44.2548 188.6847 47.0376 C 188.6847 50.3229 186.7825 52.5647 184.272 52.5647 C 181.2289 52.5647 179.7834 49.6659 179.7834 46.6125 L 179.7834 46.6125 Z" fill="#ffffff"/>
				<path d="M 196.6639 50.7917 C 196.6639 54.5497 198.6478 56.0271 201.3431 56.0271 C 204.363 56.0271 206.6656 54.2543 207.8359 53.0724 C 207.9869 54.2037 208.3643 55.8718 208.3643 55.8718 L 212.8933 55.4548 C 212.8933 55.4548 212.1377 52.3461 212.1377 50.261 L 212.1377 38.2814 L 207.4586 38.2814 L 207.4586 49.6623 C 206.5146 50.5054 204.7028 52.0382 203.1173 52.0382 C 201.6451 52.0382 201.3431 50.8503 201.3431 48.666 L 201.3431 38.2814 L 196.6639 38.2814 L 196.6639 50.7917 L 196.6639 50.7917 Z" fill="#ffffff"/>
				<path d="M 216.4825 55.523 L 221.1617 55.523 L 221.1617 44.525 C 222.4121 43.2604 224.2308 41.7662 225.7085 41.7662 C 226.9967 41.7662 227.4513 42.8005 227.4513 45.1381 L 227.4513 55.523 L 232.1305 55.523 L 232.1305 43.1071 C 232.1305 39.4393 230.3947 37.7773 227.4891 37.7773 C 224.5718 37.7773 222.3363 39.5132 220.9745 40.9536 L 220.9745 37.8511 L 216.4825 38.5898 L 216.4825 55.523 L 216.4825 55.523 Z" fill="#ffffff"/>
				<path d="M 237.5199 50.7578 C 237.5199 54.2769 239.691 56.0345 242.8413 56.0345 C 246.1283 56.0345 248.584 54.1647 248.584 54.1647 L 247.2994 50.7194 C 246.3549 51.3735 244.9949 52.22 243.9747 52.22 C 242.8413 52.22 242.1991 51.4505 242.1991 49.6035 L 242.1991 41.6 L 247.4506 41.6 L 247.4506 38.3086 L 242.1991 38.3086 L 242.1991 33.276 L 237.6697 34.1842 L 237.6697 38.107 L 234.8375 39.1222 L 234.8375 41.6 L 237.5199 41.6 L 237.5199 50.7578 L 237.5199 50.7578 Z" fill="#ffffff"/>
				<path d="M 249.8519 47.0586 C 249.8519 51.9789 252.8466 56.0304 258.8284 56.0304 C 263.3529 56.0304 266.0369 53.7199 266.0369 53.7199 L 264.8424 50.3779 C 264.8424 50.3779 262.4965 52.5647 259.6488 52.5647 C 256.9532 52.5647 255.1952 50.8465 254.6483 48.2301 L 263.3157 47.0977 L 265.848 46.3167 C 265.8107 40.6435 262.8688 37.774 258.4768 37.774 C 253.2208 37.774 249.8519 41.865 249.8519 47.0586 L 249.8519 47.0586 ZM 258.1251 41.2398 C 260.7426 41.2398 260.8207 44.5985 260.8207 44.5985 L 254.531 45.4185 C 254.8044 43.0365 256.0156 41.2398 258.1251 41.2398 L 258.1251 41.2398 Z" fill="#ffffff"/>
				<path d="M 269.1482 55.523 L 273.8273 55.523 L 273.8273 45.1108 C 274.5452 44.0429 276.0187 42.2502 277.8699 42.2502 C 278.701 42.2502 279.4944 42.5936 279.4944 42.5936 L 280.25 38.107 C 280.25 38.0501 279.7211 37.7474 278.7766 37.7474 C 276.0941 37.7474 274.3562 40.1691 273.6401 41.3799 L 273.6401 37.823 L 269.1482 38.5798 L 269.1482 55.523 L 269.1482 55.523 Z" fill="#ffffff"/>
			</g>
			<g>
				<path d="M 39.8661 59.9042 C 32.9757 59.8718 27.4001 54.3079 27.4001 47.4488 C 27.4001 45.9911 27.6522 44.5921 28.1149 43.2921 L 28.0039 43.2631 C 27.5345 44.5713 27.2789 45.9803 27.2789 47.4488 C 27.2789 54.328 32.8871 59.9044 39.8054 59.9044 L 39.8661 59.9042 ZM 55.2235 77.2462 C 64.4286 72.5088 71.1349 63.6264 72.8556 53.077 L 52.2783 49.5314 C 51.6099 53.4801 49.0732 56.7981 45.6031 58.5552 L 55.2235 77.2462 Z" fill="#76c349"/>
				<path d="M 1.25 47.707 C 1.25 68.994 18.5708 86.25 39.9376 86.25 C 46.3628 86.25 52.4221 84.6898 57.7546 81.9287 L 45.699 58.5057 C 43.9716 59.3992 42.0085 59.9044 39.9266 59.9044 C 33.0083 59.9044 27.4001 54.328 27.4001 47.4488 C 27.4001 40.5862 32.9816 35.0198 39.8771 34.9933 L 39.8771 9.164 C 18.5381 9.1966 1.25 26.4402 1.25 47.707 Z" fill="#0078d3"/>
				<path d="M 81.3298 54.6133 C 81.7047 52.3668 81.8999 50.0595 81.8999 47.707 C 81.8999 42.763 81.0382 38.0193 79.4567 33.6171 L 51.7253 43.2552 C 52.1963 44.5656 52.4528 45.9774 52.4528 47.4488 C 52.4528 48.1685 52.3914 48.8741 52.2734 49.5605 L 81.3298 54.6133 Z" fill="#d6e142"/>
				<path d="M 83.8706 32.0947 C 77.4335 14.1171 60.194 1.25 39.9376 1.25 L 39.8771 1.25 L 39.8771 34.9933 L 39.9266 34.9933 C 45.3755 34.9933 50.0116 38.4525 51.735 43.283 L 83.8706 32.0947 Z" fill="#12bdef"/>
			</g>
		</g>
	</g>
</svg>